<?xml version="1.0" encoding="UTF-8" standalone="no"?>
<!-- Created with Inkscape (http://www.inkscape.org/) -->

<svg
   xmlns:dc="http://purl.org/dc/elements/1.1/"
   xmlns:cc="http://creativecommons.org/ns#"
   xmlns:rdf="http://www.w3.org/1999/02/22-rdf-syntax-ns#"
   xmlns:svg="http://www.w3.org/2000/svg"
   xmlns="http://www.w3.org/2000/svg"
   xmlns:sodipodi="http://sodipodi.sourceforge.net/DTD/sodipodi-0.dtd"
   xmlns:inkscape="http://www.inkscape.org/namespaces/inkscape"
   width="141.11111mm"
   height="20.748583mm"
   viewBox="0 0 500.00001 73.5186"
   id="svg4553"
   version="1.1"
   inkscape:version="0.91 r13725"
   sodipodi:docname="MindPass-transparent.svg">
  <defs
     id="defs4555">
    <mask
       maskUnits="userSpaceOnUse"
       id="mask12565-7">
      <path
         style="fill:#e74c3c;fill-opacity:1;stroke-width:27;stroke-linecap:round;stroke-miterlimit:4;stroke-dasharray:none"
         d="m 1051.7413,308.44255 326.5175,0 c 15.5965,0 28.1524,12.55596 28.1524,28.15239 l 0,249.95306 c 0,15.59643 -12.5559,28.15239 -28.1524,28.15239 l -326.5175,0 c -15.5964,0 -28.1524,-12.55596 -28.1524,-28.15239 l 0,-249.95306 c 0,-15.59643 12.556,-28.15239 28.1524,-28.15239 z"
         id="path12567-1"
         inkscape:connector-curvature="0" />
    </mask>
    <mask
       maskUnits="userSpaceOnUse"
       id="mask12565-7-5-1-5-6-8">
      <path
         style="fill:#e74c3c;fill-opacity:1;stroke-width:27;stroke-linecap:round;stroke-miterlimit:4;stroke-dasharray:none"
         d="m 1051.7413,308.44255 326.5175,0 c 15.5965,0 28.1524,12.55596 28.1524,28.15239 l 0,249.95306 c 0,15.59643 -12.5559,28.15239 -28.1524,28.15239 l -326.5175,0 c -15.5964,0 -28.1524,-12.55596 -28.1524,-28.15239 l 0,-249.95306 c 0,-15.59643 12.556,-28.15239 28.1524,-28.15239 z"
         id="path12567-1-0-9-0-6-3"
         inkscape:connector-curvature="0" />
    </mask>
    <mask
       id="mask8519-0-4-3"
       maskUnits="userSpaceOnUse">
      <rect
         style="fill:#ffffff;stroke:#800033;stroke-width:17.59433746;stroke-linecap:round;stroke-miterlimit:4;stroke-dasharray:none;stroke-opacity:1"
         id="rect8521-2-8-1"
         width="750"
         height="750"
         x="840"
         y="3.6523438e-006"
         rx="375"
         ry="375" />
    </mask>
    <mask
       id="mask8519-0-4"
       maskUnits="userSpaceOnUse">
      <rect
         style="fill:#ffffff;stroke:#800033;stroke-width:17.59433746;stroke-linecap:round;stroke-miterlimit:4;stroke-dasharray:none;stroke-opacity:1"
         id="rect8521-2-8"
         width="750"
         height="750"
         x="840"
         y="3.6523438e-006"
         rx="375"
         ry="375" />
    </mask>
    <mask
       maskUnits="userSpaceOnUse"
       id="mask12565-7-0">
      <path
         style="fill:#e74c3c;fill-opacity:1;stroke-width:27;stroke-linecap:round;stroke-miterlimit:4;stroke-dasharray:none"
         d="m 1051.7413,308.44255 326.5175,0 c 15.5965,0 28.1524,12.55596 28.1524,28.15239 l 0,249.95306 c 0,15.59643 -12.5559,28.15239 -28.1524,28.15239 l -326.5175,0 c -15.5964,0 -28.1524,-12.55596 -28.1524,-28.15239 l 0,-249.95306 c 0,-15.59643 12.556,-28.15239 28.1524,-28.15239 z"
         id="path12567-1-2"
         inkscape:connector-curvature="0" />
    </mask>
    <mask
       maskUnits="userSpaceOnUse"
       id="mask12565-7-5-1-5-6-8-8">
      <path
         style="fill:#e74c3c;fill-opacity:1;stroke-width:27;stroke-linecap:round;stroke-miterlimit:4;stroke-dasharray:none"
         d="m 1051.7413,308.44255 326.5175,0 c 15.5965,0 28.1524,12.55596 28.1524,28.15239 l 0,249.95306 c 0,15.59643 -12.5559,28.15239 -28.1524,28.15239 l -326.5175,0 c -15.5964,0 -28.1524,-12.55596 -28.1524,-28.15239 l 0,-249.95306 c 0,-15.59643 12.556,-28.15239 28.1524,-28.15239 z"
         id="path12567-1-0-9-0-6-3-4"
         inkscape:connector-curvature="0" />
    </mask>
    <mask
       id="mask8519-0-4-3-5"
       maskUnits="userSpaceOnUse">
      <rect
         style="fill:#ffffff;stroke:#800033;stroke-width:17.59433746;stroke-linecap:round;stroke-miterlimit:4;stroke-dasharray:none;stroke-opacity:1"
         id="rect8521-2-8-1-9"
         width="750"
         height="750"
         x="840"
         y="3.6523438e-006"
         rx="375"
         ry="375" />
    </mask>
    <mask
       id="mask8519-0-4-3-1"
       maskUnits="userSpaceOnUse">
      <rect
         style="fill:#ffffff;stroke:#800033;stroke-width:17.59433746;stroke-linecap:round;stroke-miterlimit:4;stroke-dasharray:none;stroke-opacity:1"
         id="rect8521-2-8-1-3"
         width="750"
         height="750"
         x="840"
         y="3.6523438e-006"
         rx="375"
         ry="375" />
    </mask>
    <mask
       id="mask8519-0-4-3-1-9"
       maskUnits="userSpaceOnUse">
      <rect
         style="fill:#ffffff;stroke:#800033;stroke-width:17.59433746;stroke-linecap:round;stroke-miterlimit:4;stroke-dasharray:none;stroke-opacity:1"
         id="rect8521-2-8-1-3-7"
         width="750"
         height="750"
         x="840"
         y="3.6523438e-006"
         rx="375"
         ry="375" />
    </mask>
    <mask
       id="mask8519-0-4-3-1-0"
       maskUnits="userSpaceOnUse">
      <rect
         style="fill:#ffffff;stroke:#800033;stroke-width:17.59433746;stroke-linecap:round;stroke-miterlimit:4;stroke-dasharray:none;stroke-opacity:1"
         id="rect8521-2-8-1-3-0"
         width="750"
         height="750"
         x="840"
         y="3.6523438e-006"
         rx="375"
         ry="375" />
    </mask>
  </defs>
  <sodipodi:namedview
     id="base"
     pagecolor="#ffffff"
     bordercolor="#666666"
     borderopacity="1.0"
     inkscape:pageopacity="0.0"
     inkscape:pageshadow="2"
     inkscape:zoom="0.7"
     inkscape:cx="-360.55472"
     inkscape:cy="82.496193"
     inkscape:document-units="px"
     inkscape:current-layer="layer1"
     showgrid="false"
     inkscape:window-width="1707"
     inkscape:window-height="897"
     inkscape:window-x="-8"
     inkscape:window-y="-8"
     inkscape:window-maximized="1"
     fit-margin-top="0"
     fit-margin-left="0"
     fit-margin-right="0"
     fit-margin-bottom="0" />
  <metadata
     id="metadata4558">
    <rdf:RDF>
      <cc:Work
         rdf:about="">
        <dc:format>image/svg+xml</dc:format>
        <dc:type
           rdf:resource="http://purl.org/dc/dcmitype/StillImage" />
        <dc:title></dc:title>
      </cc:Work>
    </rdf:RDF>
  </metadata>
  <g
     inkscape:label="Calque 1"
     inkscape:groupmode="layer"
     id="layer1"
     transform="translate(254.74023,-2638.725)">
    <rect
       style="opacity:1;fill:#000000;fill-opacity:1;stroke:#ff0000;stroke-width:5.52299976;stroke-linecap:butt;stroke-linejoin:round;stroke-miterlimit:4;stroke-dasharray:none;stroke-opacity:1"
       id="rect5584"
       width="1115.2084"
       height="638.41638"
       x="-821.52899"
       y="2837.2949"
       rx="375"
       ry="375" />
    <path
       style="fill:#ffffff;fill-opacity:0.23529412;stroke:none;stroke-width:17.59433746;stroke-linecap:round;stroke-miterlimit:4;stroke-dasharray:none;stroke-opacity:1"
       d="m -217.98102,2640.4103 c -19.44562,0 -35.07393,15.6285 -35.07393,35.0741 0,19.4456 15.62831,35.0739 35.07393,35.0739 19.44562,0 35.07412,-15.6283 35.07412,-35.0739 0,-19.4456 -15.6285,-35.0741 -35.07412,-35.0741 z"
       id="rect4177-2-3-6-6"
       inkscape:connector-curvature="0"
       inkscape:export-xdpi="8.6764421"
       inkscape:export-ydpi="8.6764421" />
    <path
       style="opacity:1;fill:#ffffff;fill-opacity:0.23529412;stroke-width:27;stroke-linecap:round;stroke-miterlimit:4;stroke-dasharray:none"
       mask="none"
       d="m -222.97887,2710.2014 c 0.46432,0.066 0.92935,0.1292 1.39945,0.1766 0.59132,0.06 1.18699,0.1047 1.78685,0.1349 0.59987,0.03 1.20387,0.045 1.81155,0.045 0.60767,0 1.21169,-0.015 1.81154,-0.045 0.59987,-0.03 1.19554,-0.075 1.78686,-0.1349 0.59132,-0.06 1.17823,-0.1337 1.76029,-0.2221 0.58207,-0.088 1.1594,-0.1908 1.73148,-0.3071 0.57209,-0.1164 1.13886,-0.2464 1.70025,-0.3901 0.56138,-0.1436 1.11735,-0.3006 1.66732,-0.4708 0.54996,-0.1702 1.09394,-0.3534 1.63177,-0.5494 0.53782,-0.196 1.0694,-0.4048 1.59437,-0.6259 0.52495,-0.2212 1.04332,-0.4547 1.5547,-0.7002 0.51138,-0.2455 1.01591,-0.503 1.51299,-0.7722 0.49708,-0.2692 0.98679,-0.5501 1.46884,-0.8422 0.48205,-0.2922 0.95633,-0.5957 1.42263,-0.9101 0.46632,-0.3144 0.92454,-0.6396 1.37438,-0.9755 0.44984,-0.3359 0.8914,-0.6825 1.32406,-1.0392 0.43265,-0.3567 0.85655,-0.7235 1.27129,-1.1003 0.41475,-0.3768 0.8202,-0.7633 1.21631,-1.1594 0.39611,-0.3961 0.78285,-0.8018 1.15962,-1.2165 0.37677,-0.4148 0.74362,-0.8387 1.10032,-1.2713 0.3567,-0.4327 0.70325,-0.874 1.03915,-1.3239 0.3359,-0.4498 0.66116,-0.9081 0.97555,-1.3744 0.31439,-0.4663 0.61773,-0.9405 0.90989,-1.4226 0.29215,-0.482 0.57316,-0.972 0.84236,-1.469 0.2692,-0.4971 0.52668,-1.0014 0.77221,-1.5128 0.24552,-0.5114 0.47906,-1.0298 0.70018,-1.5547 0.22113,-0.525 0.42992,-1.0566 0.62593,-1.5944 0.19601,-0.5378 0.37924,-1.0818 0.54941,-1.6318 0.17017,-0.5499 0.32723,-1.1059 0.47084,-1.6673 0.14362,-0.5614 0.2737,-1.1282 0.39004,-1.7002 0.11162,-0.5489 0.20877,-1.1033 0.29463,-1.6614 -0.0348,-0.036 -0.0634,-0.075 -0.0988,-0.1103 l -27.08995,-27.0904 c -1.73069,-1.7307 -4.19071,-3.0198 -7.47048,-3.0198 -5.48875,0 -8.68146,3.6111 -10.00185,6.8588 -1.29308,3.1805 -1.25653,6.2349 -1.25447,6.3608 5e-5,0 0,0.024 0,0.024 l 0,5.1737 -4.38015,0 c -1.49379,0 -2.69637,1.2027 -2.69637,2.6965 l 0,23.94 c 0,0.7469 0.30056,1.4207 0.78792,1.908 l 12.54707,12.5473 z"
       id="path5473"
       inkscape:connector-curvature="0" />
    <g
       style="opacity:0.35;fill:#333333"
       id="g7810-5-6"
       transform="matrix(0.09577777,0,0,0.09577777,-334.35095,2610.6081)"
       inkscape:export-xdpi="8.6764421"
       inkscape:export-ydpi="8.6764421"
       inkscape:export-filename="E:\MindPass5-grand.png">
      <g
         style="color:#000000;font-style:normal;font-variant:normal;font-weight:normal;font-stretch:normal;font-size:medium;line-height:normal;font-family:sans-serif;text-indent:0;text-align:start;text-decoration:none;text-decoration-line:none;text-decoration-style:solid;text-decoration-color:#000000;letter-spacing:normal;word-spacing:normal;text-transform:none;direction:ltr;block-progression:tb;writing-mode:lr-tb;baseline-shift:baseline;text-anchor:start;white-space:normal;clip-rule:nonzero;display:inline;overflow:visible;visibility:visible;opacity:1;isolation:auto;mix-blend-mode:normal;color-interpolation:sRGB;color-interpolation-filters:linearRGB;solid-color:#000000;solid-opacity:1;fill:#333333;fill-opacity:1;fill-rule:evenodd;stroke:none;stroke-width:42.11045456;stroke-linecap:butt;stroke-linejoin:miter;stroke-miterlimit:4;stroke-dasharray:none;stroke-dashoffset:0;stroke-opacity:1;color-rendering:auto;image-rendering:auto;shape-rendering:auto;text-rendering:auto;enable-background:accumulate"
         id="g7812-2-5">
        <path
           style="fill:#333333"
           d="m 1097.4746,556.78516 0,-0.24414 282.8427,282.84271 0,0.24414 z"
           id="path7818-2-7"
           inkscape:connector-curvature="0" />
        <path
           style="fill:#333333"
           d="m 1139.5859,556.41797 0,-0.12109 282.8427,282.84271 0,0.12109 z"
           id="path7826-4-9"
           inkscape:connector-curvature="0" />
      </g>
    </g>
    <path
       inkscape:connector-curvature="0"
       style="fill:#ffffff;fill-opacity:0.39215687;stroke-width:27;stroke-linecap:round;stroke-miterlimit:4;stroke-dasharray:none"
       d="m -217.98102,2650.6927 c -5.48875,0 -8.68146,3.6109 -10.00185,6.8586 -1.3204,3.2477 -1.25447,6.3844 -1.25447,6.3844 l 0,5.1739 -4.38015,0 c -1.49379,0 -2.69637,1.2025 -2.69637,2.6963 l 0,23.94 c 0,1.4938 1.20258,2.6964 2.69637,2.6964 l 31.27313,0 c 1.4938,0 2.69637,-1.2026 2.69637,-2.6964 l 0,-23.94 c 0,-1.4938 -1.20257,-2.6963 -2.69637,-2.6963 l -4.37959,0 0,-5.1739 0,-0.023 c 0.002,-0.126 0.0386,-3.1806 -1.25447,-6.361 -1.32114,-3.2477 -4.51384,-6.8586 -10.0026,-6.8586 z m 0,4.0332 c 3.88137,0 5.30862,1.9906 6.26559,4.3444 0.95697,2.3538 0.95778,4.8186 0.95778,4.8186 l 0,0.012 0,5.2091 -14.44674,0 0,-5.2091 0,-0.012 c 0,0 9.6e-4,-2.4648 0.95778,-4.8186 0.95697,-2.3538 2.38423,-4.3444 6.26559,-4.3444 z"
       id="rect4173-4-9-0"
       inkscape:export-xdpi="8.6764421"
       inkscape:export-ydpi="8.6764421" />
    <path
       inkscape:connector-curvature="0"
       style="fill:#ffffff;fill-opacity:0.3137255;stroke-width:27;stroke-linecap:round;stroke-miterlimit:4;stroke-dasharray:none"
       d="m -227.25855,2677.1994 0,13.1532 8.08966,8.0897 16.82453,0 c 1.4938,0 2.69637,-1.2026 2.69637,-2.6964 l 0,-7.2004 -10.06042,-10.0604 c -0.1691,-0.1691 -0.35832,-0.3238 -0.56755,-0.4641 -0.42402,-0.2827 -0.90976,-0.4887 -1.45743,-0.6183 -0.54767,-0.1354 -1.21603,-0.2033 -2.00516,-0.2033 l -1.80687,0 -1.76197,0 -0.66709,0 -2.18399,4.715 -4.71499,-4.715 -2.38509,0 z"
       id="rect4173-4-9-0-4-3"
       inkscape:export-xdpi="8.6764421"
       inkscape:export-ydpi="8.6764421" />
    <text
       xml:space="preserve"
       style="font-style:normal;font-weight:normal;font-size:18.71442413px;line-height:125%;font-family:sans-serif;letter-spacing:0px;word-spacing:0px;fill:#ffffff;fill-opacity:0.54716982;stroke:none;stroke-width:1px;stroke-linecap:butt;stroke-linejoin:miter;stroke-opacity:1"
       x="-175.55946"
       y="2709.887"
       id="text5193-2-4"
       sodipodi:linespacing="125%"
       inkscape:export-xdpi="8.6764421"
       inkscape:export-ydpi="8.6764421"
       inkscape:export-filename="E:\MindPass5-grand.png"><tspan
         sodipodi:role="line"
         id="tspan5195-5-6"
         x="-175.55946"
         y="2709.887"
         style="font-size:92.40246582px;letter-spacing:0px;word-spacing:0px;fill:#ffffff;fill-opacity:0.54716982"
         dy="0"
         dx="0">MindPass</tspan></text>
    <g
       transform="matrix(0.45227295,0,0,0.45227295,-734.31746,1964.9493)"
       id="text8633-2"
       style="font-style:normal;font-weight:normal;font-size:40px;line-height:125%;font-family:sans-serif;letter-spacing:0px;word-spacing:0px;fill:#ffffff;fill-opacity:1;stroke:none;stroke-width:1px;stroke-linecap:butt;stroke-linejoin:miter;stroke-opacity:1"
       inkscape:export-xdpi="8.6764421"
       inkscape:export-ydpi="8.6764421"
       inkscape:export-filename="E:\MindPass5-grand.png">
      <path
         inkscape:connector-curvature="0"
         style="fill:#ffffff;fill-opacity:1"
         d="m 32.193359,2220.8965 0,137.3281 17.0625,0 0,-118.3301 37.904297,80.5157 10.884766,0 38.046878,-80.2305 0,118.0449 0.13476,0 18.12696,0 0.13476,0 0,-51.1875 18.125,0 c 9.83773,0 17.98534,-1.1674 24.44141,-3.5039 6.45575,-2.3979 12.05045,-5.9648 16.78515,-10.6992 3.812,-3.8123 6.76484,-8.3001 8.85547,-13.4649 2.15171,-5.2264 3.22657,-10.8836 3.22657,-16.9707 -10e-6,-7.9929 -1.44437,-14.6017 -4.33399,-19.8281 -2.82854,-5.2261 -6.85592,-9.5909 -12.08203,-13.0957 -4.42713,-2.9513 -9.50059,-5.1043 -15.21875,-6.457 -5.71816,-1.4141 -12.69641,-2.1211 -20.93555,-2.1211 l -18.86328,0 -18.39648,0 -6.9668,0 -35.416016,76.457 -36.615234,-76.457 -24.900391,0 z m 122.294921,15.6797 17.94141,0 c 5.77986,0 10.54431,0.4303 14.29492,1.291 3.812,0.7993 7.19517,2.1524 10.14648,4.0586 3.38166,2.2134 5.90221,5.0734 7.5625,8.5781 1.65998,3.5048 2.49024,7.623 2.49024,12.3574 0,4.0582 -0.61607,7.718 -1.84571,10.9766 -1.16824,3.2589 -3.196,6.3631 -6.08593,9.3144 -2.88962,2.8897 -6.64035,5.0106 -11.25196,6.3633 -4.61129,1.2914 -10.60592,1.9375 -17.98437,1.9375 l -15.26758,0 0,-54.8769 z"
         transform="matrix(0.21176984,0,0,0.21176984,1114.3175,1104.5046)"
         id="path8638-22" />
    </g>
    <path
       style="color:#000000;font-style:normal;font-variant:normal;font-weight:normal;font-stretch:normal;font-size:medium;line-height:normal;font-family:sans-serif;text-indent:0;text-align:start;text-decoration:none;text-decoration-line:none;text-decoration-style:solid;text-decoration-color:#000000;letter-spacing:normal;word-spacing:normal;text-transform:none;direction:ltr;block-progression:tb;writing-mode:lr-tb;baseline-shift:baseline;text-anchor:start;white-space:normal;clip-rule:nonzero;display:inline;overflow:visible;visibility:visible;opacity:1;isolation:auto;mix-blend-mode:normal;color-interpolation:sRGB;color-interpolation-filters:linearRGB;solid-color:#000000;solid-opacity:1;fill:#ffffff;fill-opacity:0.62745098;fill-rule:nonzero;stroke:none;stroke-width:17.59433746;stroke-linecap:round;stroke-linejoin:miter;stroke-miterlimit:4;stroke-dasharray:none;stroke-dashoffset:0;stroke-opacity:1;color-rendering:auto;image-rendering:auto;shape-rendering:auto;text-rendering:auto;enable-background:accumulate"
       d="m -217.98102,2638.725 c -20.35005,0 -36.75921,16.4093 -36.75921,36.7594 0,20.35 16.40916,36.7592 36.75921,36.7592 20.35005,0 36.75939,-16.4092 36.75939,-36.7592 0,-20.3501 -16.40934,-36.7594 -36.75939,-36.7594 z m 0,1.6853 c 19.44562,0 35.07412,15.6285 35.07412,35.0741 0,19.4456 -15.6285,35.0739 -35.07412,35.0739 -19.44562,0 -35.07393,-15.6283 -35.07393,-35.0739 0,-19.4456 15.62831,-35.0741 35.07393,-35.0741 z"
       id="rect4177-2-3-6-0-1"
       inkscape:connector-curvature="0"
       inkscape:export-xdpi="8.6764421"
       inkscape:export-ydpi="8.6764421" />
  </g>
</svg>
